<?xml version="1.0" encoding="utf-8"?>
<svg viewBox="3.612 6.611 297.394 46.977" xmlns="http://www.w3.org/2000/svg">
  <g transform="matrix(2.212403, 0, 0, 2.212403, -222.164948, -316.046753)" style="">
    <g>
      <g transform="matrix(1, 0, 0, 1, 35.773525, -19.881157)">
        <rect x="73.112" y="168.165" width="12.239" height="2.859" style="fill: rgb(95, 143, 220);"/>
        <ellipse style="fill: rgb(95, 143, 220);" cx="68.919" cy="169.661" rx="2.642" ry="2.642"/>
        <rect x="86.792" y="168.173" width="12.239" height="2.859" style="fill: rgb(95, 143, 220);"/>
      </g>
      <g transform="matrix(1, 0, 0, 1, 37.284363, -4.511489)">
        <g transform="matrix(1, 0, 0, 1, 1.419556, -0.257598)">
          <rect x="69.858" y="168.18" width="58.578" height="2.895" style="fill: rgb(186, 218, 85);"/>
          <ellipse style="fill: rgb(186, 218, 85);" cx="132.532" cy="169.201" rx="2.642" ry="2.642"/>
          <rect x="136.829" y="168.051" width="60.939" height="2.859" style="fill: rgb(186, 218, 85);"/>
        </g>
      </g>
      <path d="M 107.36 131.209 L 105.355 125.396 L 102.958 131.052 Q 102.785 131.099 102.534 131.131 Q 102.284 131.162 102.111 131.178 L 98.946 122.216 Q 98.743 121.651 98.602 121.338 Q 98.461 121.025 98.288 120.884 Q 98.116 120.743 97.842 120.688 Q 97.568 120.633 97.098 120.586 Q 97.066 120.335 97.098 120.085 Q 97.615 120.085 98.218 120.1 Q 98.821 120.116 99.354 120.116 Q 99.808 120.116 100.458 120.1 Q 101.109 120.085 101.594 120.085 Q 101.641 120.32 101.594 120.586 Q 100.952 120.649 100.686 120.727 Q 100.419 120.805 100.419 121.087 Q 100.419 121.197 100.466 121.362 Q 100.513 121.526 100.592 121.777 L 103.067 128.953 L 105.026 124.409 L 104.274 122.231 Q 104.086 121.667 103.952 121.346 Q 103.819 121.025 103.663 120.884 Q 103.506 120.743 103.263 120.688 Q 103.02 120.633 102.597 120.586 Q 102.566 120.335 102.597 120.085 Q 103.146 120.085 103.71 120.1 Q 104.274 120.116 104.806 120.116 Q 105.276 120.116 105.95 120.1 Q 106.624 120.085 107.141 120.085 Q 107.188 120.32 107.141 120.586 Q 106.373 120.649 106.068 120.727 Q 105.762 120.805 105.762 121.103 Q 105.762 121.322 105.919 121.777 L 108.3 128.984 L 110.854 122.027 Q 110.98 121.714 111.05 121.51 Q 111.121 121.307 111.121 121.15 Q 111.121 120.852 110.807 120.751 Q 110.494 120.649 109.726 120.586 Q 109.679 120.32 109.726 120.085 Q 109.945 120.085 110.369 120.092 Q 110.792 120.1 111.222 120.108 Q 111.653 120.116 111.873 120.116 Q 112.358 120.116 112.766 120.1 Q 113.173 120.085 113.643 120.085 Q 113.69 120.335 113.643 120.586 Q 113.189 120.633 112.899 120.696 Q 112.609 120.758 112.405 120.923 Q 112.202 121.087 112.022 121.44 Q 111.841 121.792 111.606 122.404 L 108.191 131.084 Q 108.034 131.131 107.775 131.162 Q 107.517 131.193 107.36 131.209 Z" transform="matrix(0.574416, 0, 0, 0.574416, 55.407249, 85.123001)" style="fill: rgb(74, 131, 184); line-height: 25.0689px; text-transform: uppercase; white-space: pre;"/>
      <path d="M 123.759 131.131 Q 123.101 131.131 122.639 130.802 Q 122.176 130.473 121.565 129.689 Q 120.923 130.52 120.124 130.943 Q 119.325 131.366 118.353 131.366 Q 117.429 131.366 116.653 130.997 Q 115.878 130.629 115.416 129.94 Q 114.953 129.25 114.953 128.31 Q 114.953 127.527 115.298 126.892 Q 115.643 126.258 116.215 125.78 Q 116.787 125.302 117.492 124.957 Q 117.006 124.456 116.677 123.916 Q 116.348 123.375 116.348 122.67 Q 116.348 121.918 116.732 121.377 Q 117.116 120.837 117.75 120.539 Q 118.385 120.241 119.137 120.241 Q 119.779 120.241 120.328 120.476 Q 120.876 120.711 121.213 121.174 Q 121.55 121.636 121.55 122.31 Q 121.55 123.156 120.97 123.767 Q 120.39 124.378 119.372 124.785 Q 119.811 125.224 120.32 125.772 Q 120.829 126.321 121.299 126.869 Q 121.769 127.417 122.129 127.872 Q 123.211 126.227 123.211 125.584 Q 123.211 125.192 122.85 125.098 Q 122.49 125.004 121.941 124.973 Q 121.894 124.722 121.941 124.487 Q 122.349 124.487 122.842 124.503 Q 123.336 124.519 123.916 124.519 Q 124.464 124.519 124.856 124.503 Q 125.247 124.487 125.608 124.487 Q 125.655 124.722 125.608 124.973 Q 125.216 125.004 124.926 125.075 Q 124.636 125.145 124.417 125.349 Q 124.245 125.521 123.986 125.937 Q 123.728 126.352 123.414 126.932 Q 123.226 127.245 122.999 127.629 Q 122.772 128.013 122.521 128.389 Q 123.132 129.172 123.649 129.713 Q 124.166 130.253 124.73 130.253 Q 124.903 130.253 125.169 130.191 Q 125.435 130.128 125.686 130.003 Q 125.764 130.097 125.804 130.222 Q 125.843 130.347 125.858 130.441 Q 124.95 131.131 123.759 131.131 Z M 121.158 129.156 Q 120.672 128.514 120.194 127.927 Q 119.717 127.339 119.168 126.72 Q 118.62 126.101 117.899 125.38 Q 117.304 125.725 116.935 126.321 Q 116.567 126.916 116.567 127.762 Q 116.567 128.906 117.233 129.611 Q 117.899 130.316 119.012 130.316 Q 119.701 130.316 120.179 130.026 Q 120.657 129.736 121.158 129.156 Z M 118.98 124.393 Q 120.218 123.798 120.218 122.388 Q 120.218 121.683 119.92 121.26 Q 119.623 120.837 119.059 120.837 Q 118.541 120.837 118.212 121.205 Q 117.883 121.573 117.883 122.216 Q 117.883 122.842 118.181 123.367 Q 118.479 123.892 118.98 124.393 Z" transform="matrix(0.574416, 0, 0, 0.574416, 55.407249, 85.123001)" style="fill: rgb(74, 131, 184); line-height: 25.0689px; text-transform: uppercase; white-space: pre;"/>
      <path d="M 128.135 131.084 Q 128.104 130.849 128.135 130.582 Q 128.888 130.504 129.217 130.433 Q 129.546 130.363 129.624 130.128 Q 129.702 129.893 129.702 129.329 L 129.702 122.043 Q 129.702 121.385 129.624 121.103 Q 129.546 120.821 129.217 120.735 Q 128.888 120.649 128.135 120.586 Q 128.104 120.351 128.135 120.085 Q 128.449 120.085 128.911 120.092 Q 129.373 120.1 129.828 120.108 Q 130.282 120.116 130.564 120.116 Q 130.862 120.116 131.293 120.108 Q 131.723 120.1 132.17 120.092 Q 132.617 120.085 132.93 120.085 Q 132.977 120.32 132.93 120.586 Q 132.209 120.649 131.896 120.727 Q 131.582 120.805 131.504 121.04 Q 131.426 121.275 131.426 121.839 L 131.426 125.71 L 135.029 121.886 Q 135.625 121.244 135.625 121.009 Q 135.625 120.805 135.343 120.719 Q 135.061 120.633 134.418 120.586 Q 134.387 120.32 134.418 120.085 Q 134.685 120.085 135.092 120.092 Q 135.499 120.1 135.907 120.108 Q 136.314 120.116 136.565 120.116 Q 137.066 120.116 137.513 120.1 Q 137.959 120.085 138.492 120.085 Q 138.523 120.335 138.492 120.586 Q 138.006 120.633 137.685 120.711 Q 137.364 120.79 137.074 120.978 Q 136.784 121.166 136.424 121.51 Q 136.064 121.855 135.515 122.419 L 133.212 124.801 L 136.44 129.047 Q 136.816 129.533 137.066 129.822 Q 137.317 130.112 137.56 130.261 Q 137.803 130.41 138.124 130.473 Q 138.445 130.535 138.946 130.582 Q 138.993 130.833 138.946 131.084 Q 138.649 131.084 138.241 131.076 Q 137.834 131.068 137.442 131.06 Q 137.051 131.052 136.769 131.052 Q 136.596 131.052 136.322 131.06 Q 136.048 131.068 135.828 131.068 L 132.068 126.007 L 131.426 126.712 L 131.426 129.125 Q 131.426 129.783 131.504 130.073 Q 131.582 130.363 131.904 130.441 Q 132.225 130.52 132.93 130.582 Q 132.977 130.833 132.93 131.084 Q 132.617 131.084 132.17 131.076 Q 131.723 131.068 131.277 131.06 Q 130.83 131.052 130.533 131.052 Q 130.235 131.052 129.796 131.06 Q 129.358 131.068 128.911 131.076 Q 128.464 131.084 128.135 131.084 Z" transform="matrix(0.574416, 0, 0, 0.574416, 55.407249, 85.123001)" style="fill: rgb(74, 131, 184); line-height: 25.0689px; text-transform: uppercase; white-space: pre;"/>
      <path d="M 140.416 160.181 Q 140.378 159.897 140.416 159.576 Q 141.361 159.482 141.758 159.397 Q 142.155 159.312 142.249 159.028 Q 142.344 158.745 142.344 158.064 L 142.344 147.745 L 140.983 147.745 Q 139.981 147.745 139.405 148.019 Q 138.828 148.293 138.478 148.841 Q 138.129 149.389 137.789 150.24 Q 137.486 150.277 137.184 150.24 Q 137.297 149.332 137.401 148.501 Q 137.505 147.669 137.581 146.894 Q 138.809 146.97 140.302 146.979 Q 141.795 146.989 143.402 146.989 Q 145.027 146.989 146.53 146.979 Q 148.032 146.97 149.242 146.894 Q 149.318 147.65 149.393 148.491 Q 149.469 149.332 149.582 150.24 Q 149.261 150.277 148.959 150.24 Q 148.599 149.37 148.24 148.822 Q 147.881 148.274 147.324 148.009 Q 146.766 147.745 145.764 147.745 L 144.423 147.745 L 144.423 157.818 Q 144.423 158.404 144.46 158.745 Q 144.498 159.085 144.678 159.236 Q 144.857 159.387 145.254 159.453 Q 145.651 159.519 146.35 159.576 Q 146.407 159.879 146.35 160.181 Q 145.953 160.181 145.396 160.171 Q 144.838 160.162 144.29 160.153 Q 143.742 160.143 143.364 160.143 Q 143.005 160.143 142.466 160.153 Q 141.928 160.162 141.37 160.171 Q 140.813 160.181 140.416 160.181 Z" style="fill: rgb(74, 131, 184); paint-order: stroke; text-transform: capitalize; white-space: pre;"/>
      <path d="M 153 160.389 Q 151.658 160.389 150.732 159.765 Q 149.806 159.141 149.324 158.092 Q 148.842 157.044 148.842 155.777 Q 148.842 154.473 149.343 153.358 Q 149.844 152.243 150.808 151.553 Q 151.772 150.863 153.152 150.863 Q 154.815 150.863 155.75 151.855 Q 156.686 152.848 156.686 154.416 Q 156.686 154.605 156.676 154.747 Q 156.667 154.889 156.648 154.983 L 150.695 154.927 Q 150.695 155.002 150.695 155.059 Q 150.695 156.911 151.545 157.97 Q 152.396 159.028 153.926 159.028 Q 155.212 159.028 156.459 158.196 Q 156.648 158.423 156.743 158.631 Q 155.136 160.389 153 160.389 Z M 150.751 154.227 L 154.664 154.152 Q 154.682 154.114 154.682 154.048 Q 154.682 153.982 154.682 153.963 Q 154.682 152.942 154.238 152.262 Q 153.794 151.581 152.925 151.581 Q 152.112 151.581 151.507 152.243 Q 150.902 152.904 150.751 154.227 Z" style="fill: rgb(74, 131, 184); paint-order: stroke; text-transform: capitalize; white-space: pre;"/>
      <path d="M 165.701 158.329 Q 165.89 158.556 165.984 158.763 Q 164.416 160.389 162.393 160.389 Q 161.089 160.389 160.163 159.765 Q 159.237 159.141 158.736 158.102 Q 158.235 157.062 158.235 155.796 Q 158.235 154.416 158.802 153.301 Q 159.369 152.186 160.4 151.525 Q 161.43 150.863 162.771 150.863 Q 163.471 150.863 164.189 151.062 Q 164.907 151.26 165.399 151.676 Q 165.89 152.092 165.89 152.734 Q 165.89 153.245 165.588 153.509 Q 165.285 153.774 164.869 153.774 Q 164.302 153.774 163.905 153.254 Q 163.509 152.734 163.509 151.865 Q 163.168 151.638 162.601 151.638 Q 161.921 151.638 161.458 151.978 Q 160.995 152.319 160.702 152.886 Q 160.409 153.453 160.277 154.105 Q 160.144 154.757 160.144 155.38 Q 160.144 156.439 160.503 157.27 Q 160.863 158.102 161.562 158.584 Q 162.261 159.066 163.301 159.066 Q 163.905 159.066 164.482 158.896 Q 165.058 158.726 165.701 158.329 Z" style="fill: rgb(74, 131, 184); paint-order: stroke; text-transform: capitalize; white-space: pre;"/>
      <path d="M 172.691 160.181 Q 172.653 159.879 172.691 159.595 Q 173.277 159.557 173.56 159.472 Q 173.844 159.387 173.938 159.104 Q 174.033 158.82 174.033 158.196 L 174.033 154.379 Q 174.033 153.245 173.683 152.687 Q 173.334 152.13 172.294 152.13 Q 171.746 152.13 171.236 152.328 Q 170.725 152.526 170.139 153.056 L 170.139 158.007 Q 170.139 158.745 170.224 159.066 Q 170.31 159.387 170.584 159.472 Q 170.858 159.557 171.444 159.595 Q 171.538 159.879 171.444 160.181 Q 170.971 160.181 170.404 160.162 Q 169.837 160.143 169.138 160.143 Q 168.438 160.143 167.89 160.162 Q 167.342 160.181 166.775 160.181 Q 166.719 159.879 166.775 159.595 Q 167.418 159.557 167.72 159.472 Q 168.023 159.387 168.117 159.104 Q 168.212 158.82 168.212 158.196 L 168.212 149.087 Q 168.212 148.539 168.193 148.208 Q 168.174 147.877 168.023 147.688 Q 167.871 147.48 167.588 147.395 Q 167.304 147.31 166.681 147.253 Q 166.624 147.008 166.681 146.743 Q 167.437 146.649 168.212 146.45 Q 168.987 146.252 169.856 145.893 L 170.177 146.006 Q 170.158 146.422 170.149 146.941 Q 170.139 147.461 170.139 148.085 L 170.139 152.281 Q 170.99 151.487 171.812 151.175 Q 172.634 150.863 173.39 150.863 Q 174.638 150.863 175.299 151.6 Q 175.961 152.337 175.961 153.717 L 175.961 158.007 Q 175.961 158.745 176.046 159.066 Q 176.131 159.387 176.414 159.472 Q 176.698 159.557 177.321 159.595 Q 177.359 159.879 177.321 160.181 Q 176.754 160.181 176.216 160.162 Q 175.677 160.143 174.959 160.143 Q 174.26 160.143 173.74 160.162 Q 173.22 160.181 172.691 160.181 Z" style="fill: rgb(74, 131, 184); paint-order: stroke; text-transform: capitalize; white-space: pre;"/>
      <path d="M 184.088 160.181 Q 184.05 159.879 184.088 159.595 Q 184.674 159.557 184.957 159.472 Q 185.241 159.387 185.335 159.104 Q 185.43 158.82 185.43 158.196 L 185.43 154.379 Q 185.43 153.245 185.08 152.687 Q 184.731 152.13 183.691 152.13 Q 183.143 152.13 182.633 152.328 Q 182.122 152.526 181.518 153.075 L 181.518 158.007 Q 181.518 158.745 181.603 159.066 Q 181.688 159.387 181.971 159.472 Q 182.255 159.557 182.859 159.595 Q 182.897 159.879 182.859 160.181 Q 182.33 160.181 181.754 160.162 Q 181.177 160.143 180.516 160.143 Q 179.911 160.143 179.325 160.162 Q 178.739 160.181 178.172 160.181 Q 178.116 159.879 178.172 159.595 Q 178.815 159.557 179.117 159.472 Q 179.42 159.387 179.514 159.104 Q 179.609 158.82 179.609 158.196 L 179.609 153.963 Q 179.609 153.226 179.542 152.867 Q 179.476 152.508 179.183 152.366 Q 178.89 152.224 178.191 152.13 Q 178.134 151.865 178.191 151.638 Q 179.817 151.317 181.177 150.769 L 181.499 150.882 L 181.499 152.3 Q 182.368 151.506 183.2 151.185 Q 184.031 150.863 184.787 150.863 Q 186.035 150.863 186.696 151.6 Q 187.358 152.337 187.358 153.717 L 187.358 158.007 Q 187.358 158.745 187.443 159.066 Q 187.528 159.387 187.811 159.472 Q 188.095 159.557 188.718 159.595 Q 188.756 159.879 188.718 160.181 Q 188.151 160.181 187.613 160.162 Q 187.074 160.143 186.356 160.143 Q 185.657 160.143 185.137 160.162 Q 184.617 160.181 184.088 160.181 Z" style="fill: rgb(74, 131, 184); paint-order: stroke; text-transform: capitalize; white-space: pre;"/>
      <path d="M 194.368 160.389 Q 192.989 160.389 191.958 159.793 Q 190.928 159.198 190.361 158.149 Q 189.794 157.1 189.794 155.739 Q 189.794 154.265 190.39 153.169 Q 190.985 152.073 192.062 151.468 Q 193.14 150.863 194.538 150.863 Q 195.918 150.863 196.939 151.468 Q 197.959 152.073 198.526 153.131 Q 199.093 154.19 199.093 155.532 Q 199.093 156.911 198.498 158.017 Q 197.903 159.123 196.844 159.756 Q 195.786 160.389 194.368 160.389 Z M 191.93 155.513 Q 191.93 157.44 192.563 158.565 Q 193.196 159.69 194.463 159.69 Q 195.672 159.69 196.315 158.622 Q 196.958 157.554 196.958 155.758 Q 196.958 153.849 196.315 152.715 Q 195.672 151.581 194.444 151.581 Q 193.234 151.581 192.582 152.621 Q 191.93 153.66 191.93 155.513 Z" style="fill: rgb(74, 131, 184); paint-order: stroke; text-transform: capitalize; white-space: pre;"/>
      <path d="M 204.971 160.181 Q 204.423 160.181 203.856 160.162 Q 203.289 160.143 202.589 160.143 Q 201.89 160.143 201.342 160.162 Q 200.794 160.181 200.227 160.181 Q 200.17 159.879 200.227 159.595 Q 200.87 159.557 201.172 159.472 Q 201.474 159.387 201.569 159.104 Q 201.663 158.82 201.663 158.196 L 201.663 148.728 Q 201.663 148.142 201.559 147.849 Q 201.455 147.556 201.125 147.433 Q 200.794 147.31 200.132 147.253 Q 200.076 147.008 200.132 146.743 Q 200.888 146.649 201.682 146.45 Q 202.476 146.252 203.308 145.893 L 203.629 146.006 Q 203.61 146.422 203.601 146.951 Q 203.591 147.48 203.591 148.104 L 203.591 158.007 Q 203.591 158.745 203.676 159.066 Q 203.761 159.387 204.054 159.472 Q 204.347 159.557 204.971 159.595 Q 205.009 159.879 204.971 160.181 Z" style="fill: rgb(74, 131, 184); paint-order: stroke; text-transform: capitalize; white-space: pre;"/>
      <path d="M 210.679 160.389 Q 209.299 160.389 208.269 159.793 Q 207.239 159.198 206.672 158.149 Q 206.105 157.1 206.105 155.739 Q 206.105 154.265 206.701 153.169 Q 207.296 152.073 208.373 151.468 Q 209.451 150.863 210.849 150.863 Q 212.229 150.863 213.25 151.468 Q 214.27 152.073 214.837 153.131 Q 215.404 154.19 215.404 155.532 Q 215.404 156.911 214.809 158.017 Q 214.213 159.123 213.155 159.756 Q 212.097 160.389 210.679 160.389 Z M 208.241 155.513 Q 208.241 157.44 208.874 158.565 Q 209.507 159.69 210.774 159.69 Q 211.983 159.69 212.626 158.622 Q 213.268 157.554 213.268 155.758 Q 213.268 153.849 212.626 152.715 Q 211.983 151.581 210.755 151.581 Q 209.545 151.581 208.893 152.621 Q 208.241 153.66 208.241 155.513 Z" style="fill: rgb(74, 131, 184); paint-order: stroke; text-transform: capitalize; white-space: pre;"/>
      <path d="M 220.371 164.982 Q 218.708 164.982 217.687 164.396 Q 216.667 163.81 216.667 162.77 Q 216.667 161.958 217.234 161.428 Q 217.801 160.899 218.632 160.37 Q 217.895 160.2 217.517 159.775 Q 217.139 159.349 217.139 158.763 Q 217.139 157.743 218.632 156.703 Q 218.008 156.306 217.63 155.673 Q 217.252 155.04 217.252 154.209 Q 217.252 153.169 217.791 152.422 Q 218.33 151.676 219.209 151.27 Q 220.087 150.863 221.089 150.863 Q 222.563 150.863 223.546 151.676 Q 224.567 150.863 225.55 150.863 Q 226.041 150.863 226.324 151.081 Q 226.608 151.298 226.608 151.714 Q 226.608 152.13 226.343 152.375 Q 226.079 152.621 225.701 152.621 Q 225.342 152.621 225.087 152.404 Q 224.831 152.186 224.756 151.789 Q 224.491 151.846 224.331 151.922 Q 224.17 151.997 223.962 152.13 Q 224.605 152.942 224.605 154.057 Q 224.605 155.097 224.094 155.824 Q 223.584 156.552 222.743 156.94 Q 221.902 157.327 220.9 157.327 Q 219.955 157.327 219.142 156.987 Q 218.67 157.459 218.67 157.989 Q 218.67 158.461 219.029 158.584 Q 219.388 158.707 220.352 158.707 Q 220.787 158.707 221.392 158.697 Q 221.996 158.688 222.28 158.688 Q 224.17 158.688 225.001 159.359 Q 225.833 160.03 225.833 161.202 Q 225.833 162.128 225.379 162.836 Q 224.926 163.545 224.151 164.027 Q 223.376 164.509 222.403 164.745 Q 221.429 164.982 220.371 164.982 Z M 219.445 160.464 Q 218.424 161.315 218.424 162.26 Q 218.424 162.921 218.821 163.337 Q 219.218 163.753 219.861 163.942 Q 220.503 164.131 221.221 164.131 Q 221.864 164.131 222.563 163.942 Q 223.263 163.753 223.754 163.271 Q 224.245 162.789 224.245 161.92 Q 224.245 161.126 223.688 160.786 Q 223.13 160.446 221.618 160.446 Q 221.259 160.446 220.73 160.455 Q 220.201 160.464 219.558 160.464 Q 219.502 160.464 219.445 160.464 Z M 220.938 156.666 Q 221.77 156.666 222.214 155.995 Q 222.658 155.324 222.658 154.133 Q 222.658 152.923 222.204 152.224 Q 221.751 151.525 220.881 151.525 Q 220.069 151.525 219.624 152.177 Q 219.18 152.829 219.18 154.02 Q 219.18 155.229 219.643 155.947 Q 220.106 156.666 220.938 156.666 Z" style="fill: rgb(74, 131, 184); paint-order: stroke; text-transform: capitalize; white-space: pre;"/>
      <path d="M 228.29 164.982 Q 227.78 164.982 227.506 164.689 Q 227.232 164.396 227.232 163.999 Q 227.232 163.47 227.799 162.969 Q 228.366 162.468 229.651 162.468 Q 229.897 162.033 230.133 161.532 Q 230.369 161.031 230.69 160.294 Q 230.483 159.765 230.161 158.934 Q 229.84 158.102 229.434 157.091 Q 229.027 156.08 228.611 154.993 Q 228.196 153.906 227.799 152.886 Q 227.572 152.281 227.298 152.054 Q 227.024 151.827 226.249 151.752 Q 226.192 151.487 226.249 151.166 Q 226.797 151.166 227.364 151.185 Q 227.931 151.203 228.536 151.203 Q 229.084 151.203 229.727 151.185 Q 230.369 151.166 230.823 151.166 Q 230.861 151.449 230.823 151.752 Q 230.18 151.789 229.925 151.884 Q 229.67 151.978 229.67 152.262 Q 229.67 152.526 229.859 153.075 Q 230.35 154.416 230.813 155.55 Q 231.276 156.684 231.749 157.875 Q 232.354 156.495 232.817 155.399 Q 233.28 154.303 233.752 153.112 Q 233.96 152.564 233.96 152.3 Q 233.96 152.035 233.677 151.922 Q 233.393 151.808 232.675 151.752 Q 232.618 151.449 232.675 151.166 Q 233.147 151.166 233.648 151.185 Q 234.149 151.203 234.716 151.203 Q 235.094 151.203 235.538 151.185 Q 235.982 151.166 236.342 151.166 Q 236.398 151.449 236.342 151.752 Q 235.548 151.808 235.264 152.101 Q 234.981 152.394 234.735 152.98 L 231.503 160.521 Q 231.409 160.748 231.163 161.287 Q 230.917 161.825 230.643 162.402 Q 230.369 162.978 230.18 163.356 Q 229.708 164.282 229.254 164.632 Q 228.8 164.982 228.29 164.982 Z" style="fill: rgb(74, 131, 184); paint-order: stroke; text-transform: capitalize; white-space: pre;"/>
    </g>
  </g>
</svg>