<?xml version="1.0" encoding="utf-8"?>
<svg viewBox="96.902 101.236 168.325 46.977" xmlns="http://www.w3.org/2000/svg" xmlns:xlink="http://www.w3.org/1999/xlink" xmlns:bx="https://boxy-svg.com">
  <defs>
    <linearGradient gradientUnits="userSpaceOnUse" x1="157.312" y1="145.893" x2="157.312" y2="164.788" id="gradient-1-0" gradientTransform="matrix(1, 0, 0, 1, 0, 0)" xlink:href="#gradient-1"/>
    <linearGradient id="gradient-1">
      <stop offset="0.49" style="stop-color: rgb(89, 144, 234);"/>
    </linearGradient>
    <style bx:fonts="Castoro">@import url(https://fonts.googleapis.com/css2?family=Castoro%3Aital%2Cwght%400%2C400%3B1%2C400&amp;display=swap);</style>
  </defs>
  <g transform="matrix(2.212403, 0, 0, 2.212403, -128.874924, -221.422089)" style="">
    <text style="fill: rgb(74, 131, 184); font-family: Castoro; font-size: 15.6681px; letter-spacing: 1.5px; line-height: 25.0689px; text-transform: uppercase; white-space: pre;" transform="matrix(0.574416, 0, 0, 0.574416, 55.407249, 85.123001)"><tspan x="97.364" y="131.068">W&amp;K</tspan><tspan x="97.364" dy="1em">​</tspan></text>
    <text style="fill: url(#gradient-1-0); font-family: Castoro; font-size: 18.9px; paint-order: stroke; text-transform: capitalize; white-space: pre;" x="136.957" y="160.162">Tech</text>
    <g transform="matrix(1, 0, 0, 1, 35.773525, -19.881157)">
      <rect x="73.112" y="168.165" width="12.239" height="2.859" style="fill: rgb(95, 143, 220);"/>
      <ellipse style="fill: rgb(95, 143, 220);" cx="68.919" cy="169.661" rx="2.642" ry="2.642"/>
      <rect x="86.792" y="168.173" width="12.239" height="2.859" style="fill: rgb(95, 143, 220);"/>
    </g>
    <g transform="matrix(1, 0, 0, 1, 37.284363, -4.511489)">
      <g transform="matrix(1, 0, 0, 1, 1.419556, -0.257598)">
        <rect x="69.858" y="168.18" width="49.734" height="2.895" style="fill: rgb(186, 218, 85);"/>
        <ellipse style="fill: rgb(186, 218, 85);" cx="123.492" cy="169.201" rx="2.642" ry="2.642"/>
        <rect x="127.19" y="168.051" width="12.239" height="2.859" style="fill: rgb(186, 218, 85);"/>
      </g>
    </g>
  </g>
</svg>